#!OML:ASF F:\VICON\USERDATA\INSTALL\rory3\rory3.ASF
:FULLY-SPECIFIED
:DEGREES
60
root 0.1912517641404024 17.794161738590134 12.48402356063461 -0.35677801282768584 -3.110687299525541 -7.631239440920593
lfemur -25.62452569727222 -7.2819986269209664 -9.11245014203721
ltibia 12.85495920087509
lfoot -4.069103159967529 0.6946781552047652
ltoes -11.624686521655988
rfemur 7.694698658006734 7.007219863570468 34.62030374580898
rtibia 26.95082132185169
rfoot -13.162863625646583 -4.04610910716742
rtoes 1.7754471632288795
lowerback 8.931181591775038 2.0188899367989466 6.749785670853278
upperback -0.2277886227264663 3.5309860729552267 2.0563619566440994
thorax -5.223316862985096 1.5811843467145807 -2.296497826082125
lowerneck -16.175893982648372 -2.9484595426324494 -1.262334560343749
upperneck 20.66718075889943 -3.988243689027512 0.6353280209546284
head 9.21004505850677 -1.8467126556724898 -0.055751442165531045
lclavicle -1.3874280457595716e-15 -1.8436985999666263e-15
lhumerus -36.55655707393276 7.633566958443944 80.46741303038272
lradius 17.511453818334942
lwrist -0.9387291845113173
lhand -26.303893678495978 24.470562432751446
lfingers 7.125019999999999
lthumb 0.28113576563816545 54.45982145373414
rclavicle -1.387428045932459e-15 -1.843698600126825e-15
rhumerus -23.715809531199138 -16.19191849014462 -80.5638512983867
rradius 28.9172188777733
rwrist -3.8413782075231424
rhand -18.654098263819897 23.621868572863804
rfingers 7.125019999999999
rthumb 7.63928138648581 -6.171627720784228
61
root 0.25036518399516944 17.721258694320554 13.276443667472535 -0.7768770976743931 -3.2752663541122944 -7.209542346721207
lfemur -25.803061796936333 -4.611881205555454 -11.135383150726911
ltibia 15.454097832491975
lfoot -6.402919058609694 0.2911940338849499
ltoes -10.152292742822675
rfemur 9.337390761612307 7.219591821654266 34.014653676568216
rtibia 29.345161192547224
rfoot -12.05774630944045 -2.983712769132766
rtoes 0.8547770919877347
lowerback 8.921619597067867 2.1088773701542913 6.4337271914212755
upperback -0.24356667464918738 3.5614283216482274 1.8995408546253234
thorax -5.209605080670173 1.61001733000855 -2.123028282219705
lowerneck -16.021735097746213 -3.0609077344630102 -1.3125826868988566
upperneck 20.758444198744243 -4.212232522524045 0.7825233396312625
head 9.198295727878685 -1.9287414064513309 -0.021240909726058493
lclavicle -1.3874280457594174e-15 -1.8436985999651373e-15
lhumerus -36.736606877031704 7.633974490155255 80.33971720375041
lradius 16.772700994855242
lwrist -1.8914837742495254
lhand -25.31076008608001 26.58876385274091
lfingers 7.125019999999999
lthumb 1.03813656637332 56.174000161512055
rclavicle -1.3874280459290031e-15 -1.84369860012244e-15
rhumerus -24.599393502604286 -16.86689981610705 -80.43469501966416
rradius 28.71722855109572
rwrist -3.4336689880317
rhand -18.5955781681483 23.713018470972198
rfingers 7.125019999999999
rthumb 7.6403770140826 -6.1591060541429545
62
root 0.32266727138826035 17.653459956469785 14.643925582738987 -1.5121456726790825 -3.402900351466386 -6.466453064327638
lfemur -26.096523880268343 -3.538723652716813 -13.136427982761528
ltibia 20.922857736951112
lfoot -6.7872737668336125 -1.4092338382025873
ltoes -7.085724550004528
rfemur 9.594937307356437 7.04450358853466 32.779316346891775
rtibia 33.508180122521914
rfoot -9.682999210616554 -1.7884745303805936
rtoes 1.2673702455062759
lowerback 9.108272140802029 2.1687138877145142 5.791576010370283
upperback -0.2071261801513861 3.520014701251258 1.7041241264007714
thorax -5.238068585864283 1.6104637011780156 -1.948706351035861
lowerneck -15.828872181830047 -3.168432418118729 -1.3960409114235013
upperneck 20.99070902346662 -4.4371006551307834 0.9663007482622225
head 9.235323937362388 -2.0131819358920082 0.03667579565852025
lclavicle -1.3874280457527333e-15 -1.843698599957492e-15
lhumerus -36.70439355258425 7.680855821548725 80.22232120960528
lradius 16.480509662515647
lwrist -2.3658908317820218
lhand -26.14834854838258 25.40247225235735
lfingers 7.125019999999999
lthumb 0.2696172629343143 55.122262162703514
rclavicle -1.3874280459254673e-15 -1.843698600117633e-15
rhumerus -25.500822149798445 -17.526869657619727 -80.05549886165838
rradius 28.284760344602983
rwrist -2.582780141883088
rhand -18.514240382848474 23.665398011312345
rfingers 7.125019999999999
rthumb 7.692453368482776 -6.2521819821120115
63
root 0.41173323132172346 17.65483631314962 15.77765664422423 -2.5009767100524205 -3.339184219913487 -5.249512754055459
lfemur -25.45190956674773 -3.380778060499601 -15.398901347584946
ltibia 25.45130655736139
lfoot -6.332556035038182 -2.724858740836069
ltoes -4.641164022326352
rfemur 8.424868805376745 6.181765053936701 30.764841380862798
rtibia 39.45376283624058
rfoot -5.149167646633072 -0.384846792129359
rtoes 3.7303007646390722
lowerback 9.344127926793607 2.207975513275151 4.719115603265235
upperback -0.1277421550681689 3.419236521483956 1.3799516153985794
thorax -5.235995101054077 1.586407977506945 -1.6722879682453702
lowerneck -15.666591565842412 -3.238002474866236 -1.4692555595961887
upperneck 21.282845326015675 -4.591980207147726 1.111562864305407
head 9.306200935426398 -2.072365372242504 0.08347614791911398
lclavicle -1.3874280457475854e-15 -1.8436985999514663e-15
lhumerus -36.62036300042486 7.79619748705295 80.09035105429781
lradius 16.545469143659183
lwrist -2.428769766590112
lhand -25.863484372788303 25.02956211287522
lfingers 7.125019999999999
lthumb 0.6376340094091477 54.91259210394881
rclavicle -1.3874280459237836e-15 -1.843698600114597e-15
rhumerus -26.34324338571786 -18.33611911449931 -79.58518652845326
rradius 27.629452839186335
rwrist -1.7926746647280831
rhand -18.40726996958443 23.540841457468034
rfingers 7.125019999999999
rthumb 7.773960491229185 -6.401640407082669
64
root 0.49319596778888614 17.751102283952722 15.959271011639249 -3.441707930051167 -3.3007819589712524 -4.337085397950949
lfemur -23.919248521680494 -2.7552903204785917 -17.38443764097803
ltibia 28.761232387640973
lfoot -8.276291422241362 -2.7334854984526245
ltoes -1.6280780514019857
rfemur 5.859976691471557 5.304559633734456 29.029619371343873
rtibia 46.896669825500425
rfoot 1.3294209981007263 0.6266351120308453
rtoes 9.126446240845661
lowerback 9.586654531694823 2.212387668980647 3.798975432756448
upperback -0.041039910657065665 3.3176396520637597 1.0780355172487357
thorax -5.230944353167906 1.5456518664811634 -1.4250130351622754
lowerneck -15.57060901916175 -3.24119394338947 -1.5311308651286781
upperneck 21.51895914479031 -4.6021412982892205 1.1866252676073767
head 9.376870327552997 -2.0788832196341214 0.12261983265241955
lclavicle -1.3874280457555823e-15 -1.843698599957528e-15
lhumerus -36.3024648604554 7.728133130426086 80.17177036160109
lradius 16.674651881794848
lwrist -2.194591858471447
lhand -25.684088857386875 25.1921600859152
lfingers 7.125019999999999
lthumb 0.8296267780426179 55.06982917042052
rclavicle -1.387428045916704e-15 -1.8436986001064613e-15
rhumerus -27.32162383018896 -19.561145755393518 -78.97241897073651
rradius 26.862359489459458
rwrist -0.9995924162880856
rhand -18.345133168742407 23.413484961400393
rfingers 7.125019999999999
rthumb 7.804903806923352 -6.584569657677292
65
root 0.568945790445437 17.775169471861478 16.59231305459081 -3.9964962534685067 -3.6517010861915846 -3.2828689830492688
lfemur -21.14564421292375 -2.1831067188975917 -19.155003658762407
ltibia 30.05472822813259
lfoot -8.008389889872907 -1.8604317641556547
ltoes -0.23320377064212838
rfemur 1.288625614913542 4.574592224418866 26.90498233753732
rtibia 56.40493548582204
rfoot 8.59125433527132 0.838232301274239
rtoes 16.32337425780485
lowerback 9.867055237871584 2.2489077054608066 2.9174376766109935
upperback 0.07233926750419861 3.2452603307123113 0.8127108642131322
thorax -5.229643494127446 1.532923444789905 -1.2199311448167387
lowerneck -15.537892559470842 -3.1747419771136665 -1.6285466232086347
upperneck 21.455973478139004 -4.470992959381983 1.2034953460474465
head 9.35488707046934 -2.0306299092804103 0.1508743779494166
lclavicle -1.3874280457501552e-15 -1.843698599950913e-15
lhumerus -35.62739951380299 6.907186294428705 80.57717304720776
lradius 17.611814303008277
lwrist -0.17691143152463562
lhand -24.844095935175417 26.39358158080966
lfingers 7.125019999999999
lthumb 1.451770190307657 55.94097522567871
rclavicle -1.3874280459190455e-15 -1.843698600107183e-15
rhumerus -28.176567376594868 -21.05022358377313 -78.44845629529586
rradius 26.16788931616538
rwrist -0.19913892352667606
rhand -18.347360176399313 23.25007629944387
rfingers 7.125019999999999
rthumb 7.773301670851326 -6.835508342875562
66
root 0.6320078250884343 17.842362816144814 17.083020617112382 -4.403295745413574 -3.9372062957278215 -2.0077717055415536
lfemur -18.158636549498894 -2.3933840279689567 -21.10351374475402
ltibia 30.19036406488126
lfoot -9.898292247019667 -0.6946661018283644
ltoes -0.9251921667029563
rfemur -4.536376485189578 3.7451994310212116 24.69998916009514
rtibia 65.69636082480241
rfoot 11.295610276850383 -0.35724377640607674
rtoes 18.890498329661817
lowerback 10.217776856895862 2.1694391533570863 1.8944821455559455
upperback 0.18616723654375839 2.9666337929319306 0.547832976684703
thorax -5.340939767824712 1.444594766694239 -0.8901997901538425
lowerneck -15.571697364106809 -3.0615204004121264 -1.7503437737298615
upperneck 21.33111859552106 -4.251209469055761 1.2478002714801695
head 9.323938009535231 -1.9489879571523177 0.20636018958248692
lclavicle -1.387428045748231e-15 -1.843698599947634e-15
lhumerus -35.00612117996013 5.848967604370213 80.8213121898159
lradius 18.86084580265748
lwrist 1.2401910599526274
lhand -25.078789788440258 25.57614447794978
lfingers 7.125019999999999
lthumb 1.4670789132920845 55.59615266361728
rclavicle -1.3874280459179587e-15 -1.8436986001047996e-15
rhumerus -28.807014795708852 -22.340199236520164 -78.07691931031421
rradius 25.60754063973244
rwrist 0.5790711632317613
rhand -18.316229144020262 23.13802634629832
rfingers 7.125019999999999
rthumb 7.790991682028395 -7.0122617721961955
